<?xml version="1.0" encoding="UTF-8"?>
<!DOCTYPE svg  PUBLIC '-//W3C//DTD SVG 1.1//EN'  'http://www.w3.org/Graphics/SVG/1.1/DTD/svg11.dtd'>
<svg enable-background="new 0 0 420.3 144" version="1.1" viewBox="0 0 420.3 144" xml:space="preserve" xmlns="http://www.w3.org/2000/svg">
<g fill="#F37928">
	<path d="m104.6 76.3c-1.6-1.9-3.6-3-6-3.3s-4.6 0.2-6.4 1.6c-5.9 4.7-13.2 7.1-21.7 7.1-8.4 0-15.9-3.1-22.3-9.3-6.4-6.1-9.6-13.6-9.6-22.3s3.2-16.3 9.4-22.7c6.6-6.2 14.3-9.3 22.7-9.3 8.5 0 15.7 2.4 21.4 7.1 1.8 1.5 3.9 2 6.4 1.7s4.4-1.4 5.9-3.4c1.5-1.9 2.1-4.1 1.8-6.5-0.3-2.3-1.4-4.3-3.3-5.9-9-6.9-19.7-10.5-31.6-10.5-13.6 0.1-25.5 5-35.3 14.6-9.9 9.6-14.9 21.3-15 34.8 0.1 13.6 5.1 25.3 15 34.9 9.8 9.6 21.7 14.5 35.4 14.5 11.9 0 22.6-3.6 31.7-10.7 1.9-1.4 2.9-3.4 3.3-5.8 0.2-2.4-0.4-4.6-1.8-6.6"/>
	<path d="m69.7 127.7c-18 0-35.4-7.6-47.6-20.8-1.5-1.6-1.4-4.1 0.2-5.5 1.6-1.5 4.1-1.4 5.5 0.2 10.8 11.6 26 18.3 41.9 18.3 10.8 0 21.3-3 30.4-8.8 1.8-1.2 4.2-0.6 5.4 1.2s0.6 4.2-1.2 5.4c-10.3 6.6-22.3 10-34.6 10"/>
</g>
<g fill="#F37928">
	<path d="m186.6 73.3c-0.4-0.5-1-0.8-1.7-0.9s-1.3 0.1-1.8 0.5c-1.7 1.4-3.8 2.1-6.3 2.1-2.4 0-4.6-0.9-6.5-2.7s-2.8-4-2.8-6.5 0.9-4.7 2.7-6.6c1.9-1.8 4.2-2.7 6.6-2.7 2.5 0 4.6 0.7 6.2 2.1 0.5 0.4 1.1 0.6 1.9 0.5 0.7-0.1 1.3-0.4 1.7-1s0.6-1.2 0.5-1.9-0.4-1.2-0.9-1.7c-2.6-2.1-5.8-3.1-9.2-3.1-4 0-7.4 1.5-10.3 4.2-2.9 2.8-4.3 6.2-4.4 10.1 0 3.9 1.5 7.4 4.4 10.1 2.9 2.8 6.3 4.2 10.3 4.2 3.5 0 6.6-1 9.2-3.1 0.5-0.4 0.9-1 0.9-1.7 0.1-0.7-0.1-1.3-0.5-1.9z"/>
	<path d="m300.7 54.4c0-0.7-0.2-1.3-0.7-1.8s-1.1-0.7-1.8-0.7-1.3 0.2-1.8 0.7-0.8 1.1-0.8 1.8v14.4c0 1.7-0.6 3.2-1.8 4.4s-2.6 1.8-4.3 1.8-3.1-0.6-4.3-1.8-1.8-2.7-1.8-4.4v-14.4c0-0.7-0.3-1.3-0.8-1.8s-1.1-0.7-1.8-0.7-1.3 0.3-1.8 0.7c-0.5 0.5-0.7 1.1-0.7 1.8v14.4c0 3.1 1.1 5.8 3.3 8s4.8 3.3 7.9 3.3 5.8-1.1 7.9-3.3c2.2-2.2 3.3-4.9 3.3-8v-14.4z"/>
	<path d="m243.4 54.5c-2.2-2.2-4.8-3.3-7.9-3.3s-5.8 1.1-7.9 3.3c-2.2 2.2-3.3 4.9-3.3 8v14.4c0 0.7 0.2 1.3 0.7 1.8s1.1 0.7 1.8 0.7 1.3-0.3 1.8-0.7c0.5-0.5 0.8-1.1 0.8-1.8v-14.4c0-1.7 0.6-3.2 1.8-4.4s2.6-1.8 4.3-1.8 3.1 0.6 4.3 1.8 1.8 2.7 1.8 4.4v14.4c0 0.7 0.3 1.3 0.8 1.8s1.1 0.7 1.8 0.7 1.3-0.3 1.8-0.7c0.5-0.5 0.7-1.1 0.7-1.8v-14.4c0-3.1-1.1-5.8-3.3-8z"/>
	<path d="m342.9 54.5c-2.2-2.2-4.8-3.3-7.9-3.3s-5.8 1.1-7.9 3.3c-0.3 0.3-0.6 0.6-0.8 0.9-0.3-0.3-0.6-0.7-0.9-1-2.2-2.2-4.8-3.3-7.9-3.3s-5.8 1.1-7.9 3.3c-2.2 2.2-3.3 4.9-3.3 8v14.4c0 0.7 0.2 1.3 0.7 1.8s1.1 0.7 1.8 0.7 1.3-0.2 1.8-0.7 0.8-1.1 0.8-1.8v-14.2c0-1.7 0.6-3.2 1.8-4.4s2.7-1.8 4.3-1.8c1.7 0 3.2 0.6 4.3 1.8 1.2 1.2 1.8 2.7 1.8 4.4v14.4c0 0.7 0.3 1.3 0.8 1.8s1.1 0.7 1.8 0.7h0.1 0.1c0.7 0 1.3-0.2 1.8-0.7s0.8-1.1 0.8-1.8v-14.4c0-1.7 0.6-3.2 1.8-4.4s2.6-1.8 4.3-1.8 3.2 0.6 4.3 1.8c1.2 1.2 1.8 2.7 1.8 4.4v14.4c0 0.7 0.3 1.3 0.8 1.8s1.1 0.7 1.8 0.7 1.3-0.3 1.8-0.7c0.5-0.5 0.7-1.1 0.7-1.8v-14.4c-0.2-3.2-1.3-5.9-3.4-8.1z"/>
	<path d="m176.6 88.4c-5.4 0-10.6-2.3-14.2-6.2-0.4-0.5-0.4-1.2 0.1-1.6s1.2-0.4 1.6 0.1c3.2 3.5 7.8 5.5 12.5 5.5 3.2 0 6.4-0.9 9.1-2.6 0.5-0.3 1.3-0.2 1.6 0.4 0.3 0.5 0.2 1.3-0.4 1.6-3.1 1.7-6.6 2.8-10.3 2.8"/>
	<path d="m271 66.2c-1.4-1.2-3.5-2.1-6.7-2.9-2.7-0.7-4.3-1.2-5.2-1.8s-1.2-1.3-1.2-2.4v-0.1c0-0.9 0.4-1.7 1.1-2.2 0.8-0.6 1.9-0.9 3.2-0.9 2.1 0 4.1 0.7 6.3 2.1 0.4 0.3 0.9 0.4 1.3 0.4 0.7 0 1.3-0.2 1.7-0.7 0.5-0.5 0.7-1.1 0.7-1.7 0-1-0.6-1.8-1.1-2.1-2.6-1.8-5.5-2.6-8.8-2.6-2.7 0-5.1 0.8-6.9 2.3-0.9 0.7-1.5 1.6-2 2.6s-0.7 2.2-0.7 3.3v0.1c0 2.5 0.8 4.3 2.4 5.7 1.4 1.1 3.5 2 6.8 2.8 5.2 1.2 6.1 2.3 6.1 4.1v0.1c0 1-0.4 1.8-1.3 2.4-0.8 0.6-2 0.9-3.5 0.9-2.8 0-5.2-0.9-7.6-2.8-0.4-0.3-0.9-0.5-1.5-0.5-0.7 0-1.3 0.2-1.7 0.7-0.5 0.5-0.7 1.1-0.7 1.7 0 0.8 0.4 1.5 1 2 1.5 1.2 3.2 2 5 2.6s3.6 0.9 5.5 0.9c2.9 0 5.4-0.8 7.2-2.2 1.8-1.5 2.8-3.7 2.8-6.2v-0.1c0-2.4-0.7-4.1-2.2-5.5z"/>
	<path d="m418 66.2c-1.4-1.2-3.5-2.1-6.7-2.9-2.7-0.7-4.3-1.2-5.2-1.8s-1.2-1.3-1.2-2.4v-0.1c0-0.9 0.4-1.7 1.1-2.2 0.8-0.6 1.9-0.9 3.2-0.9 2.1 0 4.1 0.7 6.3 2.1 0.4 0.3 0.9 0.4 1.3 0.4 0.7 0 1.3-0.2 1.7-0.7 0.5-0.5 0.7-1.1 0.7-1.7 0-1-0.6-1.8-1.1-2.1-2.6-1.8-5.5-2.6-8.8-2.6-2.7 0-5.1 0.8-6.9 2.3-0.9 0.7-1.5 1.6-2 2.6s-0.7 2.2-0.7 3.3v0.1c0 2.5 0.8 4.3 2.4 5.7 1.4 1.1 3.5 2 6.8 2.8 5.2 1.2 6.1 2.3 6.1 4.1v0.1c0 1-0.4 1.8-1.3 2.4-0.8 0.6-2 0.9-3.5 0.9-2.8 0-5.2-0.9-7.6-2.8-0.4-0.3-0.9-0.5-1.5-0.5-0.7 0-1.3 0.2-1.7 0.7-0.5 0.5-0.7 1.1-0.7 1.7 0 0.8 0.4 1.5 1 2 1.5 1.2 3.2 2 5 2.6s3.6 0.9 5.5 0.9c2.9 0 5.4-0.8 7.2-2.2 1.8-1.5 2.8-3.7 2.8-6.2v-0.1c0.1-2.4-0.7-4.1-2.2-5.5z"/>
	<path d="m205 51.3c-8.2 0-14 6.5-14 14.3v0.1c0 7.8 5.7 14.3 13.9 14.3s14-6.5 14-14.3v-0.1c0-7.8-5.7-14.3-13.9-14.3zm9 14.5c0 5.4-3.7 9.7-9 9.7s-9.1-4.4-9.1-9.8v-0.1c0-5.4 3.7-9.8 9-9.8 5.4 0 9.1 4.5 9.1 10z"/>
	<path d="m386 18.1c-6 0-9.7 3.9-9.7 10.4v3.9c0 6.5 3.7 10.5 9.9 10.5 4.1 0 7.2-1.8 8.8-5.1 0.1-0.2 0.1-0.5 0.1-0.7 0-0.7-0.5-1.2-1.2-1.2-0.6 0-0.9 0.3-1.1 0.7-1.2 2.6-3.5 4.1-6.6 4.1-4.7 0-7.4-3.1-7.4-8.4v-1.2h15.7c0.8 0 1.2-0.5 1.2-1.3v-1.4c0-6.4-3.6-10.3-9.7-10.3zm7.3 10.9h-14.4v-0.4c0-5.3 2.7-8.4 7.2-8.4 4.6 0 7.2 3.1 7.2 8.4v0.4z"/>
	<path d="m318.2 18.5c-0.7 0-1.2 0.5-1.2 1.3v12.8c0 5.1-2.6 8.1-7 8.1-4.5 0-7.1-3-7.1-8.1v-12.8c0-0.8-0.5-1.3-1.2-1.3s-1.2 0.5-1.2 1.3v12.9c0 6.4 3.6 10.2 9.5 10.2s9.4-3.8 9.4-10.2v-12.9c0-0.8-0.4-1.3-1.2-1.3z"/>
	<path d="m334.9 17.8c-5.9 0-9.5 3.8-9.5 10.1v12.9c0 0.8 0.5 1.3 1.2 1.3s1.2-0.5 1.2-1.3v-12.7c0-5.1 2.6-8.1 7.1-8.1 4.4 0 7 3 7 8.1v12.8c0 0.8 0.4 1.3 1.2 1.3s1.3-0.5 1.3-1.3v-13c-0.1-6.3-3.7-10.1-9.5-10.1z"/>
		<path d="m351.6 10.2c-0.9 0-1.4 0.6-1.4 1.5v1.1c0 0.9 0.6 1.4 1.4 1.4 0.9 0 1.4-0.6 1.4-1.4v-1.1c0-1-0.5-1.5-1.4-1.5z"/>
		<path d="m351.6 18.5c-0.7 0-1.2 0.5-1.2 1.3v21.1c0 0.8 0.5 1.3 1.2 1.3s1.2-0.5 1.2-1.3v-21.1c0-0.8-0.5-1.3-1.2-1.3z"/>
	<path d="m371.9 37.8c-0.5 0-0.8 0.2-1 0.6-0.8 1.5-2.1 2.3-3.9 2.3-2.7 0-4.3-1.7-4.3-4.7v-15.4h8.7c0.7 0 1.2-0.4 1.2-1 0-0.7-0.5-1.1-1.2-1.1h-8.7v-5.1c0-0.8-0.5-1.3-1.2-1.3-0.8 0-1.2 0.5-1.2 1.3v5.1h-2.7c-0.7 0-1.2 0.4-1.2 1.1s0.5 1 1.2 1h2.7v15.4c0 4.3 2.4 6.9 6.7 6.9 2.7 0 4.8-1.2 6-3.1 0.1-0.2 0.1-0.4 0.1-0.7 0-0.8-0.5-1.3-1.2-1.3z"/>
	<path d="m418.9 8.8c-0.7 0-1.2 0.5-1.2 1.3v10.7c-1.7-2-4.2-3-7.3-3h-0.8-0.1c-5.4 0.3-8.6 4.2-8.6 10.4v4.1c0 6.6 3.6 10.6 9.7 10.6s9.7-4 9.7-10.6v-22.1c-0.2-0.9-0.6-1.4-1.4-1.4zm-1.2 23.4c0 5.3-2.7 8.5-7.3 8.5s-7.3-3.2-7.3-8.5v-3.8c0-5.3 2.7-8.4 7.3-8.4h0.6c4.2 0.3 6.7 3.4 6.7 8.4v3.8z"/>
	<path d="m370.7 54.4c-2-2.2-4.9-3.3-8.4-3.3-7 0-11.4 4.7-11.4 12.2v4.2c0 3.7 1.1 6.8 3.1 9s5 3.3 8.5 3.3c4.3 0 7.7-1.8 9.7-5 0.2-0.4 0.4-0.8 0.4-1.3 0-1.3-1-2.3-2.3-2.3-0.8 0-1.6 0.4-2 1.1-1.3 2-3.3 3.2-5.8 3.2-4.5 0-7-2.9-7-8.1v-0.3h16c1.3 0 2.2-0.9 2.2-2.3v-1.5c0-3.6-1.1-6.7-3-8.9zm-15.2 8.5c0.2-4.9 2.6-7.5 6.8-7.5 4.3 0 6.7 2.7 6.9 7.5h-13.7z"/>
	<path d="m396.1 52.7c-2-1.1-4.7-1.6-7-1.6-6.4 0-10.3 4.2-10.3 11.1v14.7c0 1.7 1 2.7 2.5 2.7s2.5-1 2.5-2.7v-14.2c0-4.5 1.8-7 5.5-7 1.6 0 3.2 0.6 4.3 1.2 0.5 0.2 0.8 0.4 1.3 0.4 1.3 0 2.4-1.1 2.4-2.4 0-1-0.5-1.8-1.2-2.2z"/>
</g>
</svg>
